# xmcd
#
# Track frame offsets: 
#        150
#        35242
#        54057
#        77333
#        93366
#        115165
#        139449
#        158479
#        183628
#        220088
#        247889
#        278111
#
# Disc length: 3957 seconds
#
# Revision: 0
# Processed by: cddbd v1.5.2PL0 Copyright (c) Steve Scherf et al.
# Submitted via: ExactAudioCopy v0.99pb3
#
DISCID=9b0f730c
DTITLE=Eric Clapton And Steve Winwood - Live From Madison Square Garde
DTITLE=n [CD1]
DYEAR=2009
DGENRE=Blues
TTITLE0=Had To Cry Today
TTITLE1=Low Down
TTITLE2=Them Changes
TTITLE3=Forever Man
TTITLE4=Sleeping In The Ground
TTITLE5=Presence Of The Lord
TTITLE6=Glad
TTITLE7=Well All Right
TTITLE8=Double Trouble
TTITLE9=Pearly Queen
TTITLE10=Tell The Truth
TTITLE11=No Face, No Name, No Number
EXTD=
EXTT0=
EXTT1=
EXTT2=
EXTT3=
EXTT4=
EXTT5=
EXTT6=
EXTT7=
EXTT8=
EXTT9=
EXTT10=
EXTT11=
PLAYORDER=
